<svg version="1.2" xmlns="http://www.w3.org/2000/svg" viewBox="0 0 500 501" width="500" height="501">
	<style>
		.s0 { fill: #ffffff;stroke: #ffffff;paint-order:stroke fill markers;stroke-linejoin: round;stroke-width: 16 } 
	</style>
	<path id="Color Fill 1" class="s0" d="m431.11 261.66c40.86-3.2 107.1 59.8 107.1 59.8 0 0 6.33-107.74 29.99-118.5-32.27 4.07-91.31-25.52-91.31-25.52 0 0-27.9 70.67-45.78 84.22z"/>
	<path id="Color Fill 1 copy 2" class="s0" d="m181.11 513.66c40.86-3.2 107.1 59.8 107.1 59.8 0 0 6.33-107.74 29.99-118.5-32.27 4.07-91.31-25.52-91.31-25.52 0 0-27.9 70.67-45.78 84.22z"/>
	<path id="Color Fill 1 copy 3" class="s0" d="m-68.89 261.66c40.86-3.2 107.1 59.8 107.1 59.8 0 0 6.33-107.74 29.99-118.5-32.27 4.07-91.31-25.52-91.31-25.52 0 0-27.9 70.67-45.78 84.22z"/>
	<path id="Color Fill 1 copy" class="s0" d="m181.11 12.66c40.86-3.2 107.1 59.8 107.1 59.8 0 0 6.33-107.74 29.99-118.5-32.27 4.07-91.31-25.52-91.31-25.52 0 0-27.9 70.67-45.78 84.22z"/>
</svg>